<?xml version="1.0" encoding="UTF-8" standalone="no"?>
<!-- Created with Inkscape (http://www.inkscape.org/) -->

<svg
   xmlns:dc="http://purl.org/dc/elements/1.1/"
   xmlns:cc="http://creativecommons.org/ns#"
   xmlns:rdf="http://www.w3.org/1999/02/22-rdf-syntax-ns#"
   xmlns:svg="http://www.w3.org/2000/svg"
   xmlns="http://www.w3.org/2000/svg"
   xmlns:xlink="http://www.w3.org/1999/xlink"
   xmlns:sodipodi="http://sodipodi.sourceforge.net/DTD/sodipodi-0.dtd"
   xmlns:inkscape="http://www.inkscape.org/namespaces/inkscape"
   version="1.1"
   id="svg2"
   width="163.84"
   height="163.84"
   viewBox="0 0 163.84 163.84"
   sodipodi:docname="icon.svg"
   inkscape:version="0.92.5 (2060ec1f9f, 2020-04-08)"
   inkscape:export-filename="/home/marie-aline/Documents/Data_Travail/5 CNRS/WebPage/SPAMgit/martin-drumel-pirali-research-group/assets/images/icon.png"
   inkscape:export-xdpi="600"
   inkscape:export-ydpi="600">
  <metadata
     id="metadata8">
    <rdf:RDF>
      <cc:Work
         rdf:about="">
        <dc:format>image/svg+xml</dc:format>
        <dc:type
           rdf:resource="http://purl.org/dc/dcmitype/StillImage" />
        <dc:title></dc:title>
      </cc:Work>
    </rdf:RDF>
  </metadata>
  <defs
     id="defs6">
    <linearGradient
       inkscape:collect="always"
       xlink:href="#linearGradient1120"
       id="linearGradient1016-1"
       x1="29.563465"
       y1="30.813604"
       x2="44.059299"
       y2="30.793917"
       gradientUnits="userSpaceOnUse"
       gradientTransform="matrix(1.0940669,0.39820776,-0.51505032,1.4150891,36.645786,-25.980223)" />
    <linearGradient
       inkscape:collect="always"
       id="linearGradient1120">
      <stop
         style="stop-color:#3d0000;stop-opacity:1"
         offset="0"
         id="stop1116" />
      <stop
         style="stop-color:#ff0000;stop-opacity:1"
         offset="1"
         id="stop1118" />
    </linearGradient>
    <clipPath
       clipPathUnits="userSpaceOnUse"
       id="clipPath3379-3">
      <rect
         style="opacity:0.475;fill:#742270;fill-opacity:1;stroke:#5800c5;stroke-width:0.34999999;stroke-linecap:butt;stroke-linejoin:bevel;stroke-miterlimit:4;stroke-dasharray:none;stroke-dashoffset:0;stroke-opacity:1;paint-order:fill markers stroke"
         id="rect3381-56"
         width="17.466263"
         height="19.722889"
         x="59.278416"
         y="-0.33766246"
         transform="rotate(20)" />
    </clipPath>
  </defs>
  <sodipodi:namedview
     pagecolor="#ffffff"
     bordercolor="#666666"
     borderopacity="1"
     objecttolerance="10"
     gridtolerance="10"
     guidetolerance="10"
     inkscape:pageopacity="0"
     inkscape:pageshadow="2"
     inkscape:window-width="1848"
     inkscape:window-height="1016"
     id="namedview4"
     showgrid="true"
     borderlayer="true"
     inkscape:zoom="2.4138451"
     inkscape:cx="88.694852"
     inkscape:cy="84.735961"
     inkscape:window-x="72"
     inkscape:window-y="27"
     inkscape:window-maximized="1"
     inkscape:current-layer="svg2">
    <inkscape:grid
       type="xygrid"
       id="grid1071" />
  </sodipodi:namedview>
  <rect
     style="opacity:1;fill:#d2d2d2;fill-opacity:1;stroke:none;stroke-width:2.05170035;stroke-linecap:round;stroke-linejoin:miter;stroke-miterlimit:4;stroke-dasharray:none;stroke-dashoffset:0;stroke-opacity:1;paint-order:fill markers stroke"
     id="rect1124"
     width="162.9483"
     height="162.9483"
     x="0.44584656"
     y="0.44584656"
     ry="28.75107" />
  <path
     style="fill:none;stroke:#000000;stroke-width:5.49101019;stroke-linecap:butt;stroke-linejoin:miter;stroke-miterlimit:4;stroke-dasharray:none;stroke-opacity:1"
     d="m 39.917278,122.36263 82.365142,20.59128 75.50139,-20.59128"
     id="path1083"
     inkscape:connector-curvature="0" />
  <path
     style="fill:none;stroke:#d2d2d2;stroke-width:16.473032;stroke-linecap:butt;stroke-linejoin:miter;stroke-miterlimit:4;stroke-dasharray:none;stroke-opacity:1"
     d="M 81.099854,170.40896 V 88.04381"
     id="path1085"
     inkscape:connector-curvature="0" />
  <path
     style="fill:none;stroke:url(#linearGradient1016-1);stroke-width:0.38188311;stroke-linejoin:round;stroke-miterlimit:4;stroke-dasharray:none"
     inkscape:connector-curvature="0"
     id="path82-3"
     d="m 53.138603,29.403069 c 0.08113,-0.0322 0.866508,-0.34696 4.388561,-5.850958 0.972481,-1.519938 1.468992,-2.137323 1.730359,-2.184125 0.287699,-0.05162 0.27439,0.626451 0.04545,1.849296 -0.232291,1.236024 -0.684816,3.027491 -1.215316,5.001413 -0.532822,1.982333 -1.143293,4.144162 -1.669553,6.052777 -0.530569,1.922475 -0.971594,3.573111 -1.211439,4.653139 -0.241185,1.085713 -0.277507,1.588783 -0.07875,1.433835 0.199128,-0.155842 0.633438,-0.97174 1.238114,-2.267636 0.605668,-1.29862 1.38036,-3.07156 2.191551,-4.956694 0.812817,-1.887622 1.65949,-3.880175 2.396488,-5.577354 0.738324,-1.700815 1.362031,-3.094691 1.771665,-3.910312 0.411565,-0.816974 0.606411,-1.04843 0.568945,-0.647588 -0.0368,0.401075 -0.30594,1.432397 -0.734955,2.897134 -0.429368,1.467697 -1.016027,3.361529 -1.628064,5.319146 -0.61237,1.958524 -1.247162,3.97471 -1.765867,5.66598 -0.518058,1.691506 -0.916077,3.047192 -1.102166,3.816645 -0.186083,0.769456 -0.158288,0.947216 0.09304,0.509021 0.250982,-0.439346 0.724792,-1.492842 1.344106,-2.952083 0.620599,-1.460828 1.384392,-3.318986 2.16043,-5.212798 0.775392,-1.894045 1.560735,-3.817385 2.219188,-5.396081 0.659416,-1.579376 1.188652,-2.805025 1.502388,-3.440598 0.313431,-0.636712 0.410681,-0.67948 0.28651,-0.117869 -0.124509,0.562514 -0.469395,1.726697 -0.954177,3.275015 -0.485428,1.550142 -1.109281,3.476718 -1.739074,5.417587 -0.628819,1.940196 -1.262893,3.890819 -1.767032,5.482485 -0.50447,1.592576 -0.87571,2.817109 -1.03273,3.451097 -0.156387,0.63422 -0.09753,0.673125 0.177852,0.115129 0.275373,-0.557999 0.76727,-1.710846 1.392417,-3.233783 0.62581,-1.524759 1.384166,-3.413694 2.140892,-5.300135 0.756099,-1.886671 1.511851,-3.772439 2.133758,-5.292444 0.621587,-1.519093 1.106974,-2.664027 1.375574,-3.217291 0.269566,-0.553943 0.321329,-0.511447 0.157926,0.120219 -0.163352,0.631682 -0.541307,1.850686 -1.050772,3.431158 -0.511117,1.585016 -1.151785,3.523985 -1.786482,5.444556 -0.634031,1.918758 -1.269036,3.838187 -1.768206,5.386409 -0.498168,1.543446 -0.859444,2.708869 -1.005216,3.282158 -0.146089,0.574197 -0.07633,0.553309 0.206974,-0.05427 0.282667,-0.6078 0.77754,-1.798644 1.401662,-3.344587 0.620178,-1.537088 1.364989,-3.41861 2.121333,-5.327819 0.758015,-1.915798 1.490268,-3.762809 2.088039,-5.244291 0.60369,-1.493723 1.067891,-2.608313 1.317576,-3.131438 0.249379,-0.524264 0.282574,-0.454589 0.102577,0.198804 -0.179385,0.653624 -0.570228,1.886448 -1.090323,3.472304 -0.51943,1.584045 -1.163825,3.511373 -1.808207,5.438707 -0.644706,1.928236 -1.277507,3.821734 -1.776074,5.344464 -0.499571,1.527504 -0.861649,2.675151 -1.009157,3.233411 -0.147508,0.558254 -0.08018,0.524137 0.199064,-0.09211 0.279239,-0.616243 0.768382,-1.811232 1.386432,-3.358354 0.61642,-1.544629 1.35746,-3.433695 2.098833,-5.32161 0.742027,-1.889737 1.471849,-3.747917 2.066484,-5.236709 0.59693,-1.4931 1.05573,-2.608624 1.300984,-3.137478 0.244926,-0.527945 0.274699,-0.466711 0.09354,0.175954 -0.181773,0.642463 -0.574458,1.864334 -1.096035,3.438338 -0.519934,1.57152 -1.16546,3.486096 -1.814622,5.410657 -0.650162,1.927289 -1.28675,3.817345 -1.791442,5.342987 -0.506679,1.531092 -0.877485,2.688927 -1.036067,3.261669 -0.157974,0.572963 -0.102674,0.558123 0.164503,-0.03886 0.267171,-0.59698 0.744553,-1.771566 1.351544,-3.304202 0.609619,-1.537846 1.346833,-3.428305 2.075463,-5.295144 0.727662,-1.866169 1.459927,-3.743002 2.05967,-5.257705 0.597423,-1.508346 1.060656,-2.647973 1.311994,-3.205465 0.251342,-0.55749 0.289178,-0.53035 0.115122,0.07893 -0.174044,0.609279 -0.559314,1.798878 -1.076144,3.349929 -0.517159,1.551961 -1.164194,3.458784 -1.811238,5.365607 -0.647053,1.906819 -1.294077,3.813648 -1.811876,5.365373 -0.517779,1.549677 -0.903359,2.738135 -1.079007,3.347861 -0.175323,0.608813 -0.139123,0.636387 0.109025,0.0798 0.248769,-0.556374 0.708448,-1.694205 1.301667,-3.198941 0.594515,-1.506319 1.319299,-3.372505 2.047401,-5.249822 0.728751,-1.877084 1.458836,-3.759854 2.063296,-5.295465 0.603483,-1.534941 1.077725,-2.714784 1.343073,-3.320654 0.265007,-0.604971 0.319141,-0.632579 0.160726,-0.07416 -0.15908,0.558162 -0.530659,1.70029 -1.038121,3.215665 -0.507797,1.516288 -1.149442,3.400388 -1.799017,5.304233 -0.649268,1.904984 -1.304125,3.82336 -1.83569,5.40299 -0.53156,1.57963 -0.937194,2.813241 -1.134902,3.475616 -0.197715,0.662374 -0.187175,0.750544 0.0379,0.251374 0.224741,-0.500321 0.662039,-1.58459 1.238828,-3.052111 0.576776,-1.467523 1.290078,-3.310118 2.014952,-5.184497 0.724553,-1.875526 1.458349,-3.774426 2.071521,-5.343894 0.61349,-1.570381 1.104366,-2.803821 1.388964,-3.470567 0.284602,-0.666747 0.361954,-0.764067 0.223807,-0.27131 -0.13713,0.492093 -0.489181,1.572427 -0.983331,3.043284 -0.494153,1.470857 -1.128109,3.325875 -1.777933,5.224485 -0.649824,1.898611 -1.312886,3.833542 -1.860228,5.448566 -0.547042,1.616165 -0.975704,2.905158 -1.200099,3.6329 -0.224723,0.728652 -0.243538,0.891505 -0.04715,0.463148 0.196727,-0.429269 0.607961,-1.447945 1.164349,-2.867351 0.557018,-1.419179 1.256195,-3.230916 1.976197,-5.099873 0.720001,-1.868952 1.457511,-3.786042 2.083321,-5.396164 0.625793,-1.610125 1.136559,-2.904205 1.445361,-3.643393 0.308161,-0.739421 0.413353,-0.919172 0.301711,-0.50522 -0.111654,0.413952 -0.439104,1.420955 -0.915663,2.837537 -0.476547,1.416581 -1.099541,3.235479 -1.74799,5.124307 -0.648785,1.889732 -1.320324,3.840089 -1.884151,5.496424 -0.564132,1.655198 -1.018182,3.007975 -1.271622,3.811537 -0.254067,0.803336 -0.306843,1.053586 -0.142445,0.707172 0.164401,-0.346414 0.545,-1.288817 1.07861,-2.649665 0.533619,-1.360842 1.217005,-3.135134 1.93079,-4.992979 0.714757,-1.858522 1.456319,-3.79265 2.095401,-5.445252 0.639084,-1.652597 1.172402,-3.014577 1.508374,-3.834384 0.335971,-0.819804 0.472312,-1.093122 0.391467,-0.767723 -0.08088,0.325394 -0.379509,1.247236 -0.834837,2.599547 -0.454687,1.352546 -1.06407,3.12806 -1.709797,5.003479 -0.645712,1.875423 -1.32418,3.840746 -1.905137,5.538156 -0.580925,1.697421 -1.061702,3.117606 -1.347465,4.004026 -0.28639,0.886187 -0.375818,1.233151 -0.247058,0.978668 0.129064,-0.253339 0.475673,-1.106298 0.982578,-2.399729 0.506919,-1.293423 1.171819,-3.020961 1.878719,-4.863831 0.706879,-1.842873 1.452121,-3.791088 2.104494,-5.486162 0.65335,-1.695744 1.210194,-3.128356 1.576303,-4.0349 0.365465,-0.906774 0.538191,-1.282038 0.491139,-1.055415 -0.04743,0.227522 -0.313279,1.055357 -0.743098,2.333647 -0.430157,1.279198 -1.0223,3.003387 -1.662031,4.858363 -0.639728,1.854976 -1.32441,3.831407 -1.921828,5.570136 -0.598398,1.739401 -1.105907,3.231107 -1.425635,4.204925 -0.319097,0.97405 -0.448454,1.42475 -0.358302,1.272437 0.08981,-0.151413 0.399438,-0.906754 0.876652,-2.12254 0.477534,-1.2167 1.121003,-2.8893 1.818038,-4.709018 0.69672,-1.820862 1.44432,-3.779534 2.110927,-5.515706 0.665979,-1.736401 1.248636,-3.241893 1.64587,-4.239957 0.396911,-0.997148 0.607373,-1.480041 0.597702,-1.360143 -0.0097,0.119882 -0.239146,0.843733 -0.640509,2.039817 -0.401691,1.196993 -0.972959,2.859875 -1.604381,4.688048 -0.63206,1.827938 -1.319695,3.810494 -1.932926,5.588722 -0.613881,1.777993 -1.1488,3.340971 -1.50319,4.40605 -0.354389,1.065078 -0.525046,1.627251 -0.476179,1.584358 0.04887,-0.0429 0.31755,-0.689722 0.762072,-1.819701 0.444864,-1.130883 1.063265,-2.738557 1.748089,-4.528781 0.68485,-1.790213 1.432487,-3.752987 2.111059,-5.527999 0.679223,-1.77478 1.286715,-3.352483 1.716045,-4.442738 0.42999,-1.090016 0.680174,-1.688042 0.710861,-1.680985 0.03005,0.0068 -0.159433,0.616656 -0.528964,1.721474 -0.369587,1.104803 -0.916373,2.698433 -1.537141,4.4914 -0.619807,1.792288 -1.30937,3.7762 -1.936459,5.588464 -0.627731,1.814087 -1.189712,3.447441 -1.579426,4.605594 -0.38909,1.158386 -0.602662,1.83453 -0.597372,1.90742 0.0056,0.07404 0.230682,-0.457021 0.638901,-1.491193 0.409185,-1.034853 0.999525,-2.569433 1.668884,-4.32106 0.669358,-1.751627 1.414716,-3.712144 2.10456,-5.520084 0.690811,-1.808612 1.3215,-3.456037 1.784256,-4.640058 0.463099,-1.18493 0.754945,-1.899435 0.827987,-2.012723 0.07208,-0.112617 -0.07405,0.376214 -0.407899,1.380888 -0.334162,1.003535 -0.853479,2.517683 -1.459021,4.266825 -0.60554,1.749144 -1.292776,3.724645 -1.932694,5.568237 -0.639587,1.842685 -1.227968,3.544593 -1.6514,4.79538 -0.424403,1.251465 -0.682233,2.045201 -0.722214,2.240457 -0.03965,0.194355 0.13855,-0.211832 0.508423,-1.142715 0.369575,-0.929966 0.928846,-2.381233 1.579407,-4.08519 0.651202,-1.703729 1.391623,-3.652672 2.090093,-5.488324 0.699462,-1.836317 1.353641,-3.550275 1.849475,-4.827162 0.495198,-1.277124 0.829425,-2.111961 0.946772,-2.348997 0.117065,-0.238169 0.01588,0.123039 -0.279576,1.018263 -0.295142,0.894316 -0.783347,2.318999 -1.370351,4.015237 -0.587019,1.69623 -1.269568,3.654927 -1.918733,5.521893 -0.648832,1.866059 -1.260971,3.631316 -1.719723,4.973123 -0.458434,1.342953 -0.760851,2.257252 -0.847725,2.577373 -0.08624,0.320352 0.04341,0.04563 0.371653,-0.772879 0.327307,-0.817816 0.850951,-2.17509 1.480338,-3.820931 0.629091,-1.646977 1.360659,-3.575492 2.065757,-5.431358 0.706081,-1.856535 1.381798,-3.63156 1.909392,-4.99974 0.527618,-1.368167 0.904499,-2.322212 1.067168,-2.687768 0.16269,-0.365549 0.110179,-0.139881 -0.143937,0.637722 -0.253142,0.776931 -0.705928,2.102401 -1.270794,3.735731 -0.565479,1.633105 -1.239406,3.566141 -1.895473,5.448079 -0.655422,1.882176 -1.289653,3.704182 -1.780807,5.134992 -0.492095,1.431491 -0.838785,2.465433 -0.973238,2.91428 -0.134441,0.448852 -0.05538,0.311017 0.227962,-0.386014 0.282373,-0.696356 0.767712,-1.950327 1.37135,-3.529432 0.603669,-1.579096 1.32336,-3.47696 2.032113,-5.344865 0.708784,-1.867897 1.403684,-3.697648 1.96203,-5.152336 0.558712,-1.455586 0.977948,-2.529977 1.187274,-3.025622 0.209642,-0.496562 0.206783,-0.411211 -0.0017,0.241063 -0.208485,0.652287 -0.623222,1.869213 -1.161928,3.428756 -0.53968,1.560218 -1.201327,3.455555 -1.860359,5.345671 -0.659342,1.888978 -1.311753,3.760934 -1.834916,5.27574 -0.523496,1.515714 -0.914414,2.667261 -1.097115,3.246647 -0.182048,0.579629 -0.155831,0.585057 0.07929,0.01657 0.235457,-0.569444 0.678495,-1.709222 1.25308,-3.210452 0.574921,-1.50214 1.278121,-3.358695 1.986917,-5.228644 0.708796,-1.869947 1.419581,-3.74534 2.007389,-5.2829 0.587163,-1.537792 1.04938,-2.730239 1.305675,-3.356892 0.255955,-0.627805 0.305983,-0.687765 0.144148,-0.167631 -0.161201,0.520362 -0.533284,1.618085 -1.042534,3.094759 -0.509924,1.476429 -1.155337,3.32522 -1.813372,5.210556 -0.65867,1.885106 -1.327555,3.798378 -1.880438,5.392875 -0.551912,1.593817 -0.985798,2.861372 -1.217047,3.572219 -0.231272,0.71084 -0.258892,0.862258 -0.07331,0.427899 0.185216,-0.433452 0.583009,-1.450854 1.124903,-2.864223 0.541878,-1.413373 1.224954,-3.216572 1.930135,-5.078578 0.705501,-1.862922 1.429215,-3.775776 2.043185,-5.389178 0.614623,-1.613161 1.117177,-2.91846 1.420104,-3.677269 0.303885,-0.759492 0.406522,-0.967941 0.294918,-0.585856 -0.111904,0.380947 -0.437693,1.35153 -0.9142,2.73419 -0.475877,1.382887 -1.100444,3.172415 -1.754772,5.043674 -0.654042,1.87239 -1.335133,3.817217 -1.914429,5.482318 -0.579299,1.665104 -1.054155,3.04322 -1.333983,3.885516 -0.278871,0.841617 -0.361337,1.141743 -0.22799,0.84882 0.133362,-0.292919 0.482229,-1.177961 0.987788,-2.493476 0.504582,-1.314847 1.164183,-3.053571 1.861783,-4.896736 0.697606,-1.843167 1.430241,-3.782603 2.068683,-5.463204 0.638122,-1.681745 1.179715,-3.096254 1.529911,-3.984933 0.349884,-0.889818 0.507383,-1.249029 0.44674,-1.010894 -0.0597,0.237449 -0.336847,1.070433 -0.775659,2.349566 -0.439462,1.278893 -1.037926,2.996673 -1.683968,4.843177 -0.64541,1.846739 -1.334768,3.812208 -1.93785,5.54065 -0.603414,1.729346 -1.116607,3.212813 -1.443663,4.182934 -0.327076,0.970116 -0.465393,1.421671 -0.385883,1.274739 0.08047,-0.147608 0.377474,-0.892117 0.842733,-2.098886 0.464915,-1.205864 1.095777,-2.867626 1.78151,-4.680144 0.685075,-1.812759 1.422714,-3.767856 2.082005,-5.507724 0.659606,-1.740774 1.237584,-3.257229 1.633755,-4.27419 0.395184,-1.01629 0.607253,-1.527396 0.600817,-1.438203 -0.0065,0.08916 -0.23201,0.778453 -0.629808,1.942921 -0.39846,1.164229 -0.967806,2.800044 -1.600614,4.608169 -0.632503,1.809267 -1.326132,3.784496 -1.94903,5.567434 -0.623562,1.782693 -1.173073,3.364019 -1.546401,4.459229 -0.373338,1.095206 -0.566854,1.698427 -0.542536,1.701106 0.02434,0.0026 0.267778,-0.594704 0.689085,-1.682735 0.420967,-1.087129 1.018485,-2.659206 1.688034,-4.429277 0.669208,-1.769166 1.407538,-3.728127 2.084029,-5.517269 0.677457,-1.789818 1.28854,-3.401184 1.728689,-4.540984 0.440139,-1.139803 0.706449,-1.801891 0.754569,-1.864599 0.04812,-0.06273 -0.122274,0.47488 -0.475731,1.515612 -0.353507,1.040719 -0.889413,2.580714 -1.504372,4.339798 -0.615298,1.759987 -1.307888,3.730457 -1.947306,5.556745 -0.63943,1.826286 -1.223265,3.497965 -1.64056,4.713963 -0.417593,1.214862 -0.666621,1.9686 -0.698482,2.123618 -0.03122,0.155254 0.154459,-0.287293 0.529156,-1.247272 0.373738,-0.959304 0.934564,-2.430575 1.58299,-4.144569 0.648423,-1.713993 1.383119,-3.662962 2.072863,-5.490477 0.689742,-1.827515 1.332218,-3.525161 1.815037,-4.782103 0.482489,-1.258093 0.80235,-2.069363 0.905701,-2.285782 0.10335,-0.216418 -0.01014,0.162926 -0.315999,1.070825 -0.305868,0.9079 -0.802453,2.339816 -1.395566,4.036914 -0.593444,1.698008 -1.280097,3.652122 -1.931716,5.509971 -0.651619,1.857845 -1.264883,3.610347 -1.724462,4.940541 -0.459243,1.329293 -0.763119,2.229685 -0.851486,2.540006 -0.08809,0.309398 0.03946,0.02667 0.362617,-0.795705 0.324156,-0.823076 0.843007,-2.181067 1.465984,-3.827189 0.623631,-1.64588 1.34842,-3.571713 2.047418,-5.42466 0.699327,-1.853851 1.368582,-3.627112 1.891066,-4.995091 0.52217,-1.369128 0.895242,-2.326616 1.054457,-2.698571 0.158897,-0.371042 0.104565,-0.154264 -0.150385,0.611721 -0.255279,0.766897 -0.708581,2.079836 -1.275242,3.702226 -0.566656,1.622396 -1.242412,3.546534 -1.901959,5.424124 -0.659563,1.87758 -1.298605,3.698862 -1.797506,5.135082 -0.499248,1.437119 -0.855669,2.481917 -0.999896,2.945717 -0.145207,0.464476 -0.07856,0.346805 0.192149,-0.331169 0.270622,-0.678004 0.743519,-1.911817 1.337079,-3.477109 0.593237,-1.564382 1.303893,-3.453191 2.007193,-5.319997 0.703308,-1.866801 1.39569,-3.703644 1.955199,-5.175391 0.559191,-1.47084 0.982606,-2.57045 1.198016,-3.096792 0.215395,-0.526349 0.220926,-0.475998 0.01933,0.141735 -0.201093,0.617945 -0.607755,1.800786 -1.143253,3.335789 -0.534921,1.535208 -1.196459,3.416186 -1.857238,5.297439"
     class="graph"
     clip-path="url(#clipPath3379-3)"
     transform="matrix(7.2912742,-1.7655306,2.6538069,4.8507557,-460.4782,46.952078)" />
  <path
     style="fill:none;stroke:#000000;stroke-width:5.49101019;stroke-linecap:butt;stroke-linejoin:miter;stroke-miterlimit:4;stroke-dasharray:none;stroke-opacity:1"
     d="M 122.28242,19.406177 81.099854,88.04381 v 82.36515"
     id="path1081"
     inkscape:connector-curvature="0" />
  <path
     style="fill:none;stroke:#000000;stroke-width:5.49101019;stroke-linecap:butt;stroke-linejoin:miter;stroke-miterlimit:4;stroke-dasharray:none;stroke-opacity:1"
     d="M 197.78381,39.997466 122.28242,19.406177 39.917278,39.997466 v 82.365164 l -41.182577,68.63762 82.365153,-20.59129 75.501386,20.59129 41.18257,-68.63762 z"
     id="path1073"
     inkscape:connector-curvature="0" />
</svg>
